<svg width="36" height="36" version="1.1" xmlns="http://www.w3.org/2000/svg"><g id="Symbols" stroke="none" stroke-width="1" fill="none" fill-rule="evenodd"><g id="logo_white" fill="#FFF"><path d="M35.778 24.67a43.8 43.8 0 0 0-2.576 1.434c-1.999 1.211-3.617 2.473-4.857 3.908-.094.11-.187.22-.276.33-.09-.11-.182-.22-.277-.33-1.24-1.435-2.858-2.697-4.857-3.908l-.286-.172c2.884-2.279 4.726-5.504 4.983-9.203.053-.76.043-1.297-.039-2.113a11.154 11.154 0 0 0-.763-3.106c-1.474-3.61-4.727-5.93-8.65-5.96a10.073 10.073 0 0 0-.074 0c-3.922.03-7.176 2.35-8.649 5.96a11.15 11.15 0 0 0-.763 3.106 11.178 11.178 0 0 0-.04 2.113c.258 3.699 2.1 6.924 4.984 9.203l-.287.172c-1.999 1.211-3.616 2.473-4.856 3.908-1.55 1.794-2.436 3.792-2.48 5.988H4a4 4 0 0 1-4-4V4a4 4 0 0 1 4-4h27.778a4 4 0 0 1 4 4v20.67zm0 5.13V32a4 4 0 0 1-4 4h-1.437c.123-2.115 2.341-5.062 5.437-6.2zm-9.98 6.2H10.489c.095-2.071 1.87-4.066 5.18-6.071a40.693 40.693 0 0 1 2.474-1.371 40.693 40.693 0 0 1 2.474 1.37c3.31 2.006 5.086 4 5.18 6.072zm-7.655-12.461a10.067 10.067 0 0 1-.022-.012c-2.935-1.53-4.796-4.098-5.005-7.109-.035-.5-.03-.786.027-1.357.067-.661.22-1.288.455-1.861.806-1.977 2.47-3.163 4.545-3.178 2.076.015 3.74 1.201 4.546 3.178.234.573.388 1.2.455 1.861.057.571.062.857.027 1.357-.21 3.01-2.07 5.58-5.005 7.109l-.023.012z" id="Combined-Shape"/></g></g></svg>