<svg width="49" height="50" version="1.1" xmlns="http://www.w3.org/2000/svg"><g id="Symbols" stroke="none" stroke-width="1" fill="none" fill-rule="evenodd"><g id="footer_logo" fill="#C1C5CF"><path d="M35.714 39.957c.142-.177.289-.352.44-.527 1.971-2.28 4.544-4.288 7.723-6.214a71.508 71.508 0 0 1 4.259-2.366v8.185c-5.152 1.817-8.817 6.795-8.817 10.209h-7.211c.008-3.398-2.826-6.664-8.243-9.946a64.712 64.712 0 0 0-3.935-2.18l-.092.047a64.712 64.712 0 0 0-3.843 2.133c-5.417 3.282-8.251 6.548-8.244 9.946H.64c-.005-3.607 1.412-6.882 3.946-9.814 1.972-2.28 4.544-4.288 7.723-6.214.151-.092.303-.183.455-.273C8.18 29.318 5.25 24.189 4.84 18.307c-.084-1.208-.067-2.063.062-3.36.173-1.726.582-3.39 1.215-4.94C8.459 4.268 13.634.578 19.87.532a2.289 2.289 0 0 1 .12 0c6.236.046 11.41 3.737 13.753 9.477a17.738 17.738 0 0 1 1.214 4.94c.13 1.296.147 2.151.063 3.36-.41 5.881-3.34 11.01-7.925 14.635.153.09.304.181.455.273 3.18 1.926 5.752 3.933 7.724 6.214.15.175.297.35.44.527zM19.93 29.137l.035-.02c4.668-2.432 7.627-6.517 7.96-11.304.056-.796.047-1.25-.044-2.158a10.631 10.631 0 0 0-.722-2.96c-1.283-3.144-3.928-5.03-7.23-5.053-3.3.022-5.945 1.91-7.228 5.053a10.631 10.631 0 0 0-.723 2.96c-.09.908-.1 1.362-.044 2.158.334 4.787 3.293 8.872 7.96 11.305l.036.018z" id="Combined-Shape"/></g></g></svg>