<svg width="160" height="160" version="1.1" xmlns="http://www.w3.org/2000/svg"><defs><linearGradient x1="61.148%" y1="0%" x2="61.148%" y2="100%" id="linearGradient-1"><stop stop-color="#FFF" offset="0%"/><stop stop-color="#BCD6FF" offset="100%"/></linearGradient><linearGradient x1="0%" y1="77.91%" x2="90.364%" y2="22.09%" id="linearGradient-2"><stop stop-color="#0C61EA" offset="0%"/><stop stop-color="#00307D" offset="100%"/></linearGradient><linearGradient x1="72.501%" y1="47.967%" x2="27.499%" y2="38.11%" id="linearGradient-3"><stop stop-color="#0C61EA" offset="0%"/><stop stop-color="#00307D" offset="100%"/></linearGradient><linearGradient x1="12.519%" y1="13.062%" x2="67.964%" y2="86.938%" id="linearGradient-4"><stop stop-color="#0C61EA" offset="0%"/><stop stop-color="#00307D" offset="100%"/></linearGradient></defs><g id="Page-1" stroke="none" stroke-width="1" fill="none" fill-rule="evenodd"><g id="Frontpage" transform="translate(-96 -3123)" fill-rule="nonzero"><g id="mimic_icon" transform="translate(96 3123)"><path d="M19 0h122c10.376 0 19 8.624 19 19v122c0 10.376-8.624 19-19 19H19c-10.376 0-19-8.624-19-19V19C0 8.624 8.624 0 19 0z" id="Rectangle-3" fill="url(#linearGradient-1)"/><path d="M80 146c-36.45 0-66-29.55-66-66s29.55-66 66-66 66 29.55 66 66-29.55 66-66 66zm0-37c16.016 0 29-12.984 29-29S96.016 51 80 51 51 63.984 51 80s12.984 29 29 29z" id="Combined-Shape" fill="#004ECC"/><g id="Group-3" transform="translate(14 14)"><path d="M69.289 37h56.224C129.619 45.722 132 55.513 132 65.897 132 102.39 102.35 132 65.685 132c-1.515 0-3.107-.06-4.685 0l27.697-47.732A29.065 29.065 0 0 0 95.119 66c0-14.983-11.29-27.33-25.83-29.001z" id="Combined-Shape" fill="url(#linearGradient-2)"/><path d="M38.301 76L11 28.692C22.877 11.43 42.9 0 65.662 0 91.726 0 114.304 15.137 125 36.941H69.164a29.63 29.63 0 0 0-3.602-.219c-16.103 0-29.157 12.973-29.157 28.977 0 3.628.67 7.1 1.896 10.301z" id="Combined-Shape" fill="url(#linearGradient-3)"/><path d="M88 84.634L60.693 132C26.838 129.557 0 100.996 0 66.094 0 52.356 4.18 39.58 11.425 29L38.58 76.598c4.165 10.935 14.698 18.699 27.033 18.699 9.021 0 17.079-4.153 22.386-10.663z" id="Combined-Shape" fill="url(#linearGradient-4)"/></g></g></g></g></svg>