<svg width="160" height="160" version="1.1" xmlns="http://www.w3.org/2000/svg"><defs><linearGradient x1="61.148%" y1="0%" x2="61.148%" y2="100%" id="linearGradient-1"><stop stop-color="#FFF" offset="0%"/><stop stop-color="#BCD6FF" offset="100%"/></linearGradient><linearGradient x1="50%" y1="100%" x2="50%" y2="19.108%" id="linearGradient-2"><stop stop-color="#002E79" offset="0%"/><stop stop-color="#074DBC" offset="26.682%"/><stop stop-color="#004ECC" offset="48.772%"/><stop stop-color="#0C61EA" offset="100%"/></linearGradient><linearGradient x1="69.994%" y1="100%" x2="69.994%" y2="0%" id="linearGradient-3"><stop stop-color="#0C61EA" offset="0%"/><stop stop-color="#003A99" offset="100%"/></linearGradient><linearGradient x1="0%" y1="52.507%" x2="100%" y2="52.507%" id="linearGradient-4"><stop stop-color="#004ECC" offset="0%"/><stop stop-color="#003A99" offset="100%"/></linearGradient><linearGradient x1="0%" y1="52.308%" x2="100%" y2="52.308%" id="linearGradient-5"><stop stop-color="#004ECC" offset="0%"/><stop stop-color="#003A99" offset="100%"/></linearGradient><linearGradient x1="29.949%" y1="100%" x2="29.949%" y2="0%" id="linearGradient-6"><stop stop-color="#0C61EA" offset="0%"/><stop stop-color="#003A99" offset="100%"/></linearGradient></defs><g id="Page-1" stroke="none" stroke-width="1" fill="none" fill-rule="evenodd"><g id="Frontpage" transform="translate(-832 -3123)" fill-rule="nonzero"><g id="stealthfox_icon" transform="translate(832 3123)"><path d="M19 0h122c10.376 0 19 8.624 19 19v122c0 10.376-8.624 19-19 19H19c-10.376 0-19-8.624-19-19V19C0 8.624 8.624 0 19 0z" id="Rectangle-3" fill="url(#linearGradient-1)"/><path d="M34.73 86.488l5.896-6.091L14 77v26.664c0 .937.773 1.696 1.726 1.696.473 0 .925-.19 1.25-.528l2.635-2.721a2.797 2.797 0 0 1 3.904-.098 2.69 2.69 0 0 1 .859 1.966v6.479c0 .936.773 1.695 1.726 1.695a1.74 1.74 0 0 0 1.082-.375l3.295-2.607c3.425-2.71 8.376-2.456 11.495.588L46.318 114 51 86.488H34.73zm90.54 0l-5.896-6.091L146 77v26.664c0 .937-.773 1.696-1.726 1.696a1.74 1.74 0 0 1-1.25-.528l-2.635-2.721a2.797 2.797 0 0 0-3.904-.098 2.69 2.69 0 0 0-.859 1.966v6.479c0 .936-.773 1.695-1.726 1.695a1.74 1.74 0 0 1-1.082-.375l-3.295-2.607c-3.425-2.71-8.376-2.456-11.495.588L113.682 114 109 86.488h16.27z" id="Combined-Shape" fill="#003283"/><path d="M146 20.71v56.007c0 3.621-1.437 7.095-3.995 9.659L84.842 143.99a6.84 6.84 0 0 1-9.672.012L17.995 86.376A13.676 13.676 0 0 1 14 76.716V20.71a1.71 1.71 0 0 1 2.914-1.214l28.298 28.053C56.808 44.306 68.404 42.684 80 42.684c11.596 0 23.192 1.622 34.788 4.865l28.298-28.053A1.71 1.71 0 0 1 146 20.71z" id="Combined-Shape" fill="url(#linearGradient-2)"/><path d="M14 76c1.368 4.209 5.252 6.313 11.65 6.313h10.234c16.578 0 30.8 11.675 33.833 27.774L76 144 17.687 86.045C15.229 83.682 14 80.333 14 76z" id="Rectangle-2" fill="url(#linearGradient-3)"/><path d="M46.369 98.01c4.418 0 8.418-1.333 12-4-3.582-2.666-7.582-4-12-4-4.419 0-8.419 1.334-12 4 3.581 2.667 7.581 4 12 4z" id="Oval" fill="#FFF" transform="scale(-1 1) rotate(-27 0 287.15)"/><path d="M121.116 26L146 49.602c-4.098 2.012-8.585 4.635-13.46 7.867-7.915 5.249-11.759 9.426-11.53 12.531l.106-44z" id="Rectangle" fill="url(#linearGradient-4)" transform="matrix(-1 0 0 1 267 0)"/><path d="M14.116 26L39 49.602c-4.098 2.012-8.585 4.635-13.46 7.867C17.625 62.718 13.781 66.895 14.01 70l.106-44z" id="Rectangle" fill="url(#linearGradient-5)"/><path d="M146 76c-1.368 4.209-5.252 6.313-11.65 6.313h-10.234c-16.578 0-30.8 11.675-33.833 27.774L84 144l58.313-57.955C144.771 83.682 146 80.333 146 76z" id="Rectangle-2" fill="url(#linearGradient-6)"/><path d="M112.508 98.01c4.418 0 8.418-1.333 12-4-3.582-2.666-7.582-4-12-4s-8.418 1.334-12 4c3.582 2.667 7.582 4 12 4z" id="Oval" fill="#FFF" transform="rotate(-27 112.508 94.01)"/></g></g></g></svg>